<svg xmlns="http://www.w3.org/2000/svg" viewBox="0 0 400 300">
  <rect x="50" y="50" width="300" height="200" rx="10" fill="#D1FAE5"/>
  <circle cx="200" cy="130" r="60" fill="#10B981" opacity="0.2"/>
  <path d="M160 130 L200 130 L200 90" stroke="#10B981" stroke-width="4" stroke-linecap="round" fill="none"/>
  <path d="M200 130 L240 170" stroke="#10B981" stroke-width="4" stroke-linecap="round" fill="none"/>
  <circle cx="160" cy="130" r="8" fill="#10B981"/>
  <circle cx="200" cy="90" r="8" fill="#10B981"/>
  <circle cx="240" cy="170" r="8" fill="#10B981"/>
  <rect x="80" y="180" width="240" height="20" rx="10" fill="#6EE7B7"/>
  <circle cx="100" cy="190" r="6" fill="#10B981"/>
  <circle cx="130" cy="190" r="6" fill="#10B981"/>
  <circle cx="160" cy="190" r="6" fill="#10B981"/>
  <circle cx="190" cy="190" r="6" fill="#10B981"/>
  <circle cx="220" cy="190" r="6" fill="#F59E0B"/>
  <path d="M80 100 L120 100 M80 140 L120 140" stroke="#9CA3AF" stroke-width="2" stroke-dasharray="5,3"/>
  <path d="M280 100 L320 100 M280 140 L320 140" stroke="#9CA3AF" stroke-width="2" stroke-dasharray="5,3"/>
  <text x="200" y="270" text-anchor="middle" font-family="Arial" font-size="14" fill="#6B7280">Smart Selectors</text>
</svg>