<svg xmlns="http://www.w3.org/2000/svg" viewBox="0 0 400 300">
  <rect x="60" y="40" width="280" height="220" rx="10" fill="#E0E7FF"/>
  <rect x="80" y="60" width="240" height="40" rx="8" fill="#818CF8"/>
  <rect x="90" y="75" width="120" height="10" rx="2" fill="white"/>
  <rect x="80" y="120" width="240" height="60" rx="8" fill="#C7D2FE"/>
  <circle cx="110" cy="150" r="15" fill="#818CF8"/>
  <rect x="140" y="140" width="160" height="8" rx="2" fill="#A5B4FC"/>
  <rect x="140" y="155" width="100" height="8" rx="2" fill="#C7D2FE"/>
  <rect x="80" y="200" width="240" height="40" rx="8" fill="#C7D2FE"/>
  <circle cx="110" cy="220" r="15" fill="#818CF8"/>
  <rect x="140" y="210" width="160" height="8" rx="2" fill="#A5B4FC"/>
  <rect x="140" y="225" width="100" height="8" rx="2" fill="#C7D2FE"/>
  <circle cx="340" cy="70" r="25" fill="#818CF8" opacity="0.2"/>
  <path d="M330 70 L340 80 L355 60" stroke="#818CF8" stroke-width="3" stroke-linecap="round" stroke-linejoin="round" fill="none"/>
  <text x="200" y="285" text-anchor="middle" font-family="Arial" font-size="14" fill="#6B7280">Test Suites</text>
</svg>