<svg xmlns="http://www.w3.org/2000/svg" viewBox="0 0 400 300">
  <rect x="60" y="40" width="280" height="220" rx="10" fill="#DBEAFE"/>
  <rect x="80" y="60" width="240" height="50" rx="8" fill="#3B82F6"/>
  <circle cx="110" cy="85" r="12" fill="#10B981"/>
  <rect x="140" y="75" width="100" height="8" rx="2" fill="white"/>
  <rect x="140" y="88" width="60" height="6" rx="2" fill="#93C5FD"/>
  <rect x="80" y="130" width="115" height="50" rx="8" fill="#E0E7FF"/>
  <rect x="95" y="145" width="85" height="6" rx="2" fill="#818CF8"/>
  <rect x="95" y="158" width="65" height="6" rx="2" fill="#C7D2FE"/>
  <rect x="205" y="130" width="115" height="50" rx="8" fill="#E0E7FF"/>
  <rect x="220" y="145" width="85" height="6" rx="2" fill="#818CF8"/>
  <rect x="220" y="158" width="65" height="6" rx="2" fill="#C7D2FE"/>
  <rect x="80" y="200" width="240" height="40" rx="8" fill="#93C5FD"/>
  <rect x="100" y="215" width="60" height="10" rx="3" fill="#3B82F6"/>
  <rect x="180" y="215" width="60" height="10" rx="3" fill="#F59E0B"/>
  <circle cx="340" cy="60" r="20" fill="#3B82F6" opacity="0.3"/>
  <path d="M330 60 L340 70 L355 50" stroke="white" stroke-width="3" stroke-linecap="round" stroke-linejoin="round" fill="none"/>
  <text x="200" y="285" text-anchor="middle" font-family="Arial" font-size="14" fill="#6B7280">Test Executions</text>
</svg>